<mxfile host="app.diagrams.net" modified="2024-04-04T21:27:21.720Z" agent="Mozilla/5.0 (Windows NT 10.0; Win64; x64) AppleWebKit/537.36 (KHTML, like Gecko) Chrome/123.0.0.0 Safari/537.36" etag="dj4FNCPfYXYg4Z34Bkq5" version="24.2.1" type="device">
  <diagram id="C5RBs43oDa-KdzZeNtuy" name="Page-1">
    <mxGraphModel dx="1991" dy="1926" grid="1" gridSize="10" guides="1" tooltips="1" connect="1" arrows="1" fold="1" page="1" pageScale="1" pageWidth="827" pageHeight="1169" math="0" shadow="0">
      <root>
        <mxCell id="WIyWlLk6GJQsqaUBKTNV-0" />
        <mxCell id="WIyWlLk6GJQsqaUBKTNV-1" parent="WIyWlLk6GJQsqaUBKTNV-0" />
        <mxCell id="9lwiX_E5CfIlx43PSh-V-35" value="" style="rounded=1;whiteSpace=wrap;html=1;fillColor=#F1E4F7;strokeColor=#9673a6;movable=0;resizable=0;rotatable=0;deletable=0;editable=0;locked=1;connectable=0;" parent="WIyWlLk6GJQsqaUBKTNV-1" vertex="1">
          <mxGeometry x="-650" y="-590" width="2450" height="1660" as="geometry" />
        </mxCell>
        <mxCell id="bLYH9DIfeV2L1JEAK7II-32" style="edgeStyle=orthogonalEdgeStyle;rounded=0;orthogonalLoop=1;jettySize=auto;html=1;entryX=0.5;entryY=1;entryDx=0;entryDy=0;endArrow=ERzeroToMany;endFill=0;startArrow=ERoneToMany;startFill=0;" edge="1" parent="WIyWlLk6GJQsqaUBKTNV-1" source="zkfFHV4jXpPFQw0GAbJ--0" target="bLYH9DIfeV2L1JEAK7II-26">
          <mxGeometry relative="1" as="geometry">
            <Array as="points">
              <mxPoint x="120" y="-52" />
              <mxPoint y="-52" />
            </Array>
          </mxGeometry>
        </mxCell>
        <mxCell id="zkfFHV4jXpPFQw0GAbJ--0" value="Users" style="swimlane;fontStyle=1;align=center;verticalAlign=top;childLayout=stackLayout;horizontal=1;startSize=26;horizontalStack=0;resizeParent=1;resizeLast=0;collapsible=1;marginBottom=0;rounded=0;shadow=0;strokeWidth=1;" parent="WIyWlLk6GJQsqaUBKTNV-1" vertex="1">
          <mxGeometry x="90" y="20" width="260" height="458" as="geometry">
            <mxRectangle x="230" y="140" width="160" height="26" as="alternateBounds" />
          </mxGeometry>
        </mxCell>
        <mxCell id="-uKI1FrvdBVuVZxCTakQ-14" value="id: uuid" style="text;align=left;verticalAlign=top;spacingLeft=4;spacingRight=4;overflow=hidden;rotatable=0;points=[[0,0.5],[1,0.5]];portConstraint=eastwest;fillColor=#fff2cc;strokeColor=#d6b656;" parent="zkfFHV4jXpPFQw0GAbJ--0" vertex="1">
          <mxGeometry y="26" width="260" height="26" as="geometry" />
        </mxCell>
        <mxCell id="zkfFHV4jXpPFQw0GAbJ--1" value="name: VARCHAR(300)" style="text;align=left;verticalAlign=top;spacingLeft=4;spacingRight=4;overflow=hidden;rotatable=0;points=[[0,0.5],[1,0.5]];portConstraint=eastwest;" parent="zkfFHV4jXpPFQw0GAbJ--0" vertex="1">
          <mxGeometry y="52" width="260" height="26" as="geometry" />
        </mxCell>
        <mxCell id="famHrx6TlAmhTrz2zlUo-7" value="personal_email: VARCHAR(300)" style="text;align=left;verticalAlign=top;spacingLeft=4;spacingRight=4;overflow=hidden;rotatable=0;points=[[0,0.5],[1,0.5]];portConstraint=eastwest;rounded=0;shadow=0;html=0;" parent="zkfFHV4jXpPFQw0GAbJ--0" vertex="1">
          <mxGeometry y="78" width="260" height="26" as="geometry" />
        </mxCell>
        <mxCell id="Aj5XZWAfCBxzIgwr4D-w-1" value="cpf: VARCHAR(14)" style="text;align=left;verticalAlign=top;spacingLeft=4;spacingRight=4;overflow=hidden;rotatable=0;points=[[0,0.5],[1,0.5]];portConstraint=eastwest;rounded=0;shadow=0;html=0;" parent="zkfFHV4jXpPFQw0GAbJ--0" vertex="1">
          <mxGeometry y="104" width="260" height="26" as="geometry" />
        </mxCell>
        <mxCell id="zkfFHV4jXpPFQw0GAbJ--3" value="phone: VARCHAR(15)" style="text;align=left;verticalAlign=top;spacingLeft=4;spacingRight=4;overflow=hidden;rotatable=0;points=[[0,0.5],[1,0.5]];portConstraint=eastwest;rounded=0;shadow=0;html=0;" parent="zkfFHV4jXpPFQw0GAbJ--0" vertex="1">
          <mxGeometry y="130" width="260" height="26" as="geometry" />
        </mxCell>
        <mxCell id="fBdpWE9XJ8fsoQBZoCfp-0" value="residence_distance: ENUM(&#39;perto&#39;,&#39;longe&#39;,&#39;muito longe&#39;)" style="text;align=left;verticalAlign=top;spacingLeft=4;spacingRight=4;overflow=hidden;rotatable=0;points=[[0,0.5],[1,0.5]];portConstraint=eastwest;rounded=0;shadow=0;html=0;" parent="zkfFHV4jXpPFQw0GAbJ--0" vertex="1">
          <mxGeometry y="156" width="260" height="26" as="geometry" />
        </mxCell>
        <mxCell id="-uKI1FrvdBVuVZxCTakQ-0" value="registration: VARCHAR(15)" style="text;align=left;verticalAlign=top;spacingLeft=4;spacingRight=4;overflow=hidden;rotatable=0;points=[[0,0.5],[1,0.5]];portConstraint=eastwest;rounded=0;shadow=0;html=0;" parent="zkfFHV4jXpPFQw0GAbJ--0" vertex="1">
          <mxGeometry y="182" width="260" height="26" as="geometry" />
        </mxCell>
        <mxCell id="-uKI1FrvdBVuVZxCTakQ-3" value="cell_id: SMALLINT, FK cells(id)" style="text;align=left;verticalAlign=top;spacingLeft=4;spacingRight=4;overflow=hidden;rotatable=0;points=[[0,0.5],[1,0.5]];portConstraint=eastwest;rounded=0;shadow=0;html=0;fillColor=#f8cecc;strokeColor=#b85450;" parent="zkfFHV4jXpPFQw0GAbJ--0" vertex="1">
          <mxGeometry y="208" width="260" height="26" as="geometry" />
        </mxCell>
        <mxCell id="EOZXVsjFeJaIdy7UI6iU-1" value="num_projects: SMALLINT, DEFAULT 0" style="text;align=left;verticalAlign=top;spacingLeft=4;spacingRight=4;overflow=hidden;rotatable=0;points=[[0,0.5],[1,0.5]];portConstraint=eastwest;rounded=0;shadow=0;html=0;" parent="zkfFHV4jXpPFQw0GAbJ--0" vertex="1">
          <mxGeometry y="234" width="260" height="26" as="geometry" />
        </mxCell>
        <mxCell id="-uKI1FrvdBVuVZxCTakQ-4" value="meters: SMALLINT, DEFAULT 24" style="text;align=left;verticalAlign=top;spacingLeft=4;spacingRight=4;overflow=hidden;rotatable=0;points=[[0,0.5],[1,0.5]];portConstraint=eastwest;rounded=0;shadow=0;html=0;" parent="zkfFHV4jXpPFQw0GAbJ--0" vertex="1">
          <mxGeometry y="260" width="260" height="26" as="geometry" />
        </mxCell>
        <mxCell id="gxHYrnx_h41nNu9AlrPa-11" value="active_member: BOOLEAN, DEFAULT TRUE" style="text;align=left;verticalAlign=top;spacingLeft=4;spacingRight=4;overflow=hidden;rotatable=0;points=[[0,0.5],[1,0.5]];portConstraint=eastwest;rounded=0;shadow=0;html=0;" parent="zkfFHV4jXpPFQw0GAbJ--0" vertex="1">
          <mxGeometry y="286" width="260" height="26" as="geometry" />
        </mxCell>
        <mxCell id="fBdpWE9XJ8fsoQBZoCfp-1" value="created_at: DATETIME DEFAULT CURRENT_TIMESTAMP" style="text;strokeColor=none;fillColor=none;align=left;verticalAlign=top;spacingLeft=4;spacingRight=4;overflow=hidden;rotatable=0;points=[[0,0.5],[1,0.5]];portConstraint=eastwest;whiteSpace=wrap;html=1;" parent="zkfFHV4jXpPFQw0GAbJ--0" vertex="1">
          <mxGeometry y="312" width="260" height="46" as="geometry" />
        </mxCell>
        <mxCell id="fBdpWE9XJ8fsoQBZoCfp-2" value="updated_at: DATETIME DEFAULT CURRENT_TIMESTAMP" style="text;strokeColor=none;fillColor=none;align=left;verticalAlign=top;spacingLeft=4;spacingRight=4;overflow=hidden;rotatable=0;points=[[0,0.5],[1,0.5]];portConstraint=eastwest;whiteSpace=wrap;html=1;" parent="zkfFHV4jXpPFQw0GAbJ--0" vertex="1">
          <mxGeometry y="358" width="260" height="46" as="geometry" />
        </mxCell>
        <mxCell id="fBdpWE9XJ8fsoQBZoCfp-3" value="deleted_at: DATETIME DEFAULT CURRENT_TIMESTAMP" style="text;strokeColor=none;fillColor=none;align=left;verticalAlign=top;spacingLeft=4;spacingRight=4;overflow=hidden;rotatable=0;points=[[0,0.5],[1,0.5]];portConstraint=eastwest;whiteSpace=wrap;html=1;" parent="zkfFHV4jXpPFQw0GAbJ--0" vertex="1">
          <mxGeometry y="404" width="260" height="46" as="geometry" />
        </mxCell>
        <mxCell id="zkfFHV4jXpPFQw0GAbJ--4" value="" style="line;html=1;strokeWidth=1;align=left;verticalAlign=middle;spacingTop=-1;spacingLeft=3;spacingRight=3;rotatable=0;labelPosition=right;points=[];portConstraint=eastwest;" parent="zkfFHV4jXpPFQw0GAbJ--0" vertex="1">
          <mxGeometry y="450" width="260" height="8" as="geometry" />
        </mxCell>
        <mxCell id="-uKI1FrvdBVuVZxCTakQ-10" style="edgeStyle=orthogonalEdgeStyle;rounded=0;orthogonalLoop=1;jettySize=auto;html=1;entryX=1;entryY=0.5;entryDx=0;entryDy=0;endArrow=ERone;endFill=0;startArrow=ERzeroToMany;startFill=0;exitX=0;exitY=0.5;exitDx=0;exitDy=0;" parent="WIyWlLk6GJQsqaUBKTNV-1" source="-uKI1FrvdBVuVZxCTakQ-16" target="zkfFHV4jXpPFQw0GAbJ--1" edge="1">
          <mxGeometry relative="1" as="geometry">
            <Array as="points">
              <mxPoint x="450" y="129" />
              <mxPoint x="450" y="90" />
              <mxPoint x="350" y="90" />
            </Array>
          </mxGeometry>
        </mxCell>
        <mxCell id="tHn-pjXhagg5LejLjShR-14" style="edgeStyle=orthogonalEdgeStyle;rounded=0;orthogonalLoop=1;jettySize=auto;html=1;entryX=-0.004;entryY=0.148;entryDx=0;entryDy=0;endArrow=ERone;endFill=0;startArrow=ERzeroToMany;startFill=0;exitX=0.996;exitY=0.778;exitDx=0;exitDy=0;exitPerimeter=0;entryPerimeter=0;" parent="WIyWlLk6GJQsqaUBKTNV-1" source="kCAULkptvaa0RNnHd1r2-24" target="tHn-pjXhagg5LejLjShR-0" edge="1">
          <mxGeometry relative="1" as="geometry">
            <Array as="points">
              <mxPoint x="900" y="188" />
              <mxPoint x="900" y="303" />
            </Array>
          </mxGeometry>
        </mxCell>
        <mxCell id="-uKI1FrvdBVuVZxCTakQ-6" value="Occurrences" style="swimlane;fontStyle=1;align=center;verticalAlign=top;childLayout=stackLayout;horizontal=1;startSize=26;horizontalStack=0;resizeParent=1;resizeParentMax=0;resizeLast=0;collapsible=1;marginBottom=0;" parent="WIyWlLk6GJQsqaUBKTNV-1" vertex="1">
          <mxGeometry x="470" y="90" width="310" height="378" as="geometry" />
        </mxCell>
        <mxCell id="-uKI1FrvdBVuVZxCTakQ-16" value="id: uuid" style="text;align=left;verticalAlign=top;spacingLeft=4;spacingRight=4;overflow=hidden;rotatable=0;points=[[0,0.5],[1,0.5]];portConstraint=eastwest;fillColor=#fff2cc;strokeColor=#d6b656;" parent="-uKI1FrvdBVuVZxCTakQ-6" vertex="1">
          <mxGeometry y="26" width="310" height="26" as="geometry" />
        </mxCell>
        <mxCell id="cBAoYvj5LLwuzuzhChio-1" value="incident_date: DATE" style="text;align=left;verticalAlign=top;spacingLeft=4;spacingRight=4;overflow=hidden;rotatable=0;points=[[0,0.5],[1,0.5]];portConstraint=eastwest;rounded=0;shadow=0;html=0;" parent="-uKI1FrvdBVuVZxCTakQ-6" vertex="1">
          <mxGeometry y="52" width="310" height="26" as="geometry" />
        </mxCell>
        <mxCell id="kCAULkptvaa0RNnHd1r2-24" value="occurrence_type_id: SMALLINT, FK ocurrence_types(id)" style="text;align=left;verticalAlign=top;spacingLeft=4;spacingRight=4;overflow=hidden;rotatable=0;points=[[0,0.5],[1,0.5]];portConstraint=eastwest;fillColor=#f8cecc;strokeColor=#b85450;" parent="-uKI1FrvdBVuVZxCTakQ-6" vertex="1">
          <mxGeometry y="78" width="310" height="26" as="geometry" />
        </mxCell>
        <mxCell id="tHn-pjXhagg5LejLjShR-77" value="subject_type_id: SMALLINT, FK subject_types(id)" style="text;align=left;verticalAlign=top;spacingLeft=4;spacingRight=4;overflow=hidden;rotatable=0;points=[[0,0.5],[1,0.5]];portConstraint=eastwest;fillColor=#f8cecc;strokeColor=#b85450;" parent="-uKI1FrvdBVuVZxCTakQ-6" vertex="1">
          <mxGeometry y="104" width="310" height="26" as="geometry" />
        </mxCell>
        <mxCell id="-uKI1FrvdBVuVZxCTakQ-21" value="message: VARCHAR(3000)" style="text;align=left;verticalAlign=top;spacingLeft=4;spacingRight=4;overflow=hidden;rotatable=0;points=[[0,0.5],[1,0.5]];portConstraint=eastwest;rounded=0;shadow=0;html=0;" parent="-uKI1FrvdBVuVZxCTakQ-6" vertex="1">
          <mxGeometry y="130" width="310" height="26" as="geometry" />
        </mxCell>
        <mxCell id="bBI314PdqXXNKxMfU6kw-0" value="scoring_level_id: SMALLINT, FK scoring_levels(id)" style="text;align=left;verticalAlign=top;spacingLeft=4;spacingRight=4;overflow=hidden;rotatable=0;points=[[0,0.5],[1,0.5]];portConstraint=eastwest;fillColor=#f8cecc;strokeColor=#b85450;" parent="-uKI1FrvdBVuVZxCTakQ-6" vertex="1">
          <mxGeometry y="156" width="310" height="26" as="geometry" />
        </mxCell>
        <mxCell id="tHn-pjXhagg5LejLjShR-24" value="meter_value: SMALLINTDEFAULT 0" style="text;align=left;verticalAlign=top;spacingLeft=4;spacingRight=4;overflow=hidden;rotatable=0;points=[[0,0.5],[1,0.5]];portConstraint=eastwest;rounded=0;shadow=0;html=0;" parent="-uKI1FrvdBVuVZxCTakQ-6" vertex="1">
          <mxGeometry y="182" width="310" height="26" as="geometry" />
        </mxCell>
        <mxCell id="f59yjAlqzriR1pj_SLv7-0" value="user_created_id: SMALLINT, FK users(id)" style="text;align=left;verticalAlign=top;spacingLeft=4;spacingRight=4;overflow=hidden;rotatable=0;points=[[0,0.5],[1,0.5]];portConstraint=eastwest;fillColor=#f8cecc;strokeColor=#b85450;" parent="-uKI1FrvdBVuVZxCTakQ-6" vertex="1">
          <mxGeometry y="208" width="310" height="26" as="geometry" />
        </mxCell>
        <mxCell id="-uKI1FrvdBVuVZxCTakQ-17" value="user_referring_id: SMALLINT, FK users(id)" style="text;align=left;verticalAlign=top;spacingLeft=4;spacingRight=4;overflow=hidden;rotatable=0;points=[[0,0.5],[1,0.5]];portConstraint=eastwest;fillColor=#f8cecc;strokeColor=#b85450;" parent="-uKI1FrvdBVuVZxCTakQ-6" vertex="1">
          <mxGeometry y="234" width="310" height="26" as="geometry" />
        </mxCell>
        <mxCell id="-uKI1FrvdBVuVZxCTakQ-22" value="created_at: TIMESTAMP, DEFAULT NOW()" style="text;align=left;verticalAlign=top;spacingLeft=4;spacingRight=4;overflow=hidden;rotatable=0;points=[[0,0.5],[1,0.5]];portConstraint=eastwest;rounded=0;shadow=0;html=0;" parent="-uKI1FrvdBVuVZxCTakQ-6" vertex="1">
          <mxGeometry y="260" width="310" height="26" as="geometry" />
        </mxCell>
        <mxCell id="fBdpWE9XJ8fsoQBZoCfp-4" value="updated_at: DATETIME DEFAULT CURRENT_TIMESTAMP" style="text;strokeColor=none;fillColor=none;align=left;verticalAlign=top;spacingLeft=4;spacingRight=4;overflow=hidden;rotatable=0;points=[[0,0.5],[1,0.5]];portConstraint=eastwest;whiteSpace=wrap;html=1;" parent="-uKI1FrvdBVuVZxCTakQ-6" vertex="1">
          <mxGeometry y="286" width="310" height="46" as="geometry" />
        </mxCell>
        <mxCell id="fBdpWE9XJ8fsoQBZoCfp-5" value="deleted_at: DATETIME DEFAULT CURRENT_TIMESTAMP" style="text;strokeColor=none;fillColor=none;align=left;verticalAlign=top;spacingLeft=4;spacingRight=4;overflow=hidden;rotatable=0;points=[[0,0.5],[1,0.5]];portConstraint=eastwest;whiteSpace=wrap;html=1;" parent="-uKI1FrvdBVuVZxCTakQ-6" vertex="1">
          <mxGeometry y="332" width="310" height="46" as="geometry" />
        </mxCell>
        <mxCell id="tHn-pjXhagg5LejLjShR-0" value="Occurrence_types" style="swimlane;fontStyle=1;align=center;verticalAlign=top;childLayout=stackLayout;horizontal=1;startSize=26;horizontalStack=0;resizeParent=1;resizeParentMax=0;resizeLast=0;collapsible=1;marginBottom=0;" parent="WIyWlLk6GJQsqaUBKTNV-1" vertex="1">
          <mxGeometry x="920" y="290" width="260" height="86" as="geometry" />
        </mxCell>
        <mxCell id="tHn-pjXhagg5LejLjShR-1" value="id: SERIAL" style="text;align=left;verticalAlign=top;spacingLeft=4;spacingRight=4;overflow=hidden;rotatable=0;points=[[0,0.5],[1,0.5]];portConstraint=eastwest;fillColor=#fff2cc;strokeColor=#d6b656;" parent="tHn-pjXhagg5LejLjShR-0" vertex="1">
          <mxGeometry y="26" width="260" height="26" as="geometry" />
        </mxCell>
        <mxCell id="tHn-pjXhagg5LejLjShR-5" value="name: VARCHAR(300)" style="text;align=left;verticalAlign=top;spacingLeft=4;spacingRight=4;overflow=hidden;rotatable=0;points=[[0,0.5],[1,0.5]];portConstraint=eastwest;rounded=0;shadow=0;html=0;" parent="tHn-pjXhagg5LejLjShR-0" vertex="1">
          <mxGeometry y="52" width="260" height="26" as="geometry" />
        </mxCell>
        <mxCell id="tHn-pjXhagg5LejLjShR-8" value="" style="line;strokeWidth=1;fillColor=none;align=left;verticalAlign=middle;spacingTop=-1;spacingLeft=3;spacingRight=3;rotatable=0;labelPosition=right;points=[];portConstraint=eastwest;strokeColor=inherit;" parent="tHn-pjXhagg5LejLjShR-0" vertex="1">
          <mxGeometry y="78" width="260" height="8" as="geometry" />
        </mxCell>
        <mxCell id="tHn-pjXhagg5LejLjShR-11" style="edgeStyle=orthogonalEdgeStyle;rounded=0;orthogonalLoop=1;jettySize=auto;html=1;entryX=0.994;entryY=0.135;entryDx=0;entryDy=0;entryPerimeter=0;" parent="WIyWlLk6GJQsqaUBKTNV-1" source="tHn-pjXhagg5LejLjShR-9" target="tHn-pjXhagg5LejLjShR-0" edge="1">
          <mxGeometry relative="1" as="geometry">
            <Array as="points">
              <mxPoint x="1236" y="250" />
              <mxPoint x="1236" y="296" />
            </Array>
          </mxGeometry>
        </mxCell>
        <mxCell id="tHn-pjXhagg5LejLjShR-9" value="&#39;justificativa&#39;, &#39;não aceita&#39;,&lt;br style=&quot;border-color: var(--border-color); padding: 0px; margin: 0px; text-align: left;&quot;&gt;&lt;span style=&quot;text-align: left;&quot;&gt;&#39;plausível&#39;, &#39;aviso&#39;, &#39;gratificação&#39;,&lt;br&gt;&#39;advertência&#39;&lt;br&gt;&lt;/span&gt;" style="html=1;dropTarget=0;" parent="WIyWlLk6GJQsqaUBKTNV-1" vertex="1">
          <mxGeometry x="1320" y="184" width="180" height="130" as="geometry" />
        </mxCell>
        <mxCell id="tHn-pjXhagg5LejLjShR-10" value="" style="shape=module;jettyWidth=8;jettyHeight=4;" parent="tHn-pjXhagg5LejLjShR-9" vertex="1">
          <mxGeometry x="1" width="20" height="20" relative="1" as="geometry">
            <mxPoint x="-27" y="7" as="offset" />
          </mxGeometry>
        </mxCell>
        <mxCell id="tHn-pjXhagg5LejLjShR-84" style="edgeStyle=orthogonalEdgeStyle;rounded=0;orthogonalLoop=1;jettySize=auto;html=1;startArrow=ERone;startFill=0;endArrow=ERzeroToMany;endFill=0;entryX=1;entryY=0.5;entryDx=0;entryDy=0;" parent="WIyWlLk6GJQsqaUBKTNV-1" source="tHn-pjXhagg5LejLjShR-78" target="tHn-pjXhagg5LejLjShR-77" edge="1">
          <mxGeometry relative="1" as="geometry">
            <Array as="points">
              <mxPoint x="890" y="380" />
              <mxPoint x="800" y="380" />
              <mxPoint x="800" y="207" />
            </Array>
            <mxPoint x="1100" y="170" as="sourcePoint" />
            <mxPoint x="820" y="159.99999999999977" as="targetPoint" />
          </mxGeometry>
        </mxCell>
        <mxCell id="tHn-pjXhagg5LejLjShR-78" value="Subject_types" style="swimlane;fontStyle=1;align=center;verticalAlign=top;childLayout=stackLayout;horizontal=1;startSize=26;horizontalStack=0;resizeParent=1;resizeParentMax=0;resizeLast=0;collapsible=1;marginBottom=0;" parent="WIyWlLk6GJQsqaUBKTNV-1" vertex="1">
          <mxGeometry x="840" y="420" width="260" height="86" as="geometry" />
        </mxCell>
        <mxCell id="tHn-pjXhagg5LejLjShR-79" value="id: SERIAL" style="text;align=left;verticalAlign=top;spacingLeft=4;spacingRight=4;overflow=hidden;rotatable=0;points=[[0,0.5],[1,0.5]];portConstraint=eastwest;fillColor=#fff2cc;strokeColor=#d6b656;" parent="tHn-pjXhagg5LejLjShR-78" vertex="1">
          <mxGeometry y="26" width="260" height="26" as="geometry" />
        </mxCell>
        <mxCell id="tHn-pjXhagg5LejLjShR-80" value="name: VARCHAR(300)" style="text;align=left;verticalAlign=top;spacingLeft=4;spacingRight=4;overflow=hidden;rotatable=0;points=[[0,0.5],[1,0.5]];portConstraint=eastwest;rounded=0;shadow=0;html=0;" parent="tHn-pjXhagg5LejLjShR-78" vertex="1">
          <mxGeometry y="52" width="260" height="26" as="geometry" />
        </mxCell>
        <mxCell id="tHn-pjXhagg5LejLjShR-81" value="" style="line;strokeWidth=1;fillColor=none;align=left;verticalAlign=middle;spacingTop=-1;spacingLeft=3;spacingRight=3;rotatable=0;labelPosition=right;points=[];portConstraint=eastwest;strokeColor=inherit;" parent="tHn-pjXhagg5LejLjShR-78" vertex="1">
          <mxGeometry y="78" width="260" height="8" as="geometry" />
        </mxCell>
        <mxCell id="bBI314PdqXXNKxMfU6kw-17" style="edgeStyle=orthogonalEdgeStyle;rounded=0;orthogonalLoop=1;jettySize=auto;html=1;entryX=1;entryY=0.5;entryDx=0;entryDy=0;" parent="WIyWlLk6GJQsqaUBKTNV-1" source="tHn-pjXhagg5LejLjShR-86" target="tHn-pjXhagg5LejLjShR-79" edge="1">
          <mxGeometry relative="1" as="geometry" />
        </mxCell>
        <mxCell id="tHn-pjXhagg5LejLjShR-86" value="&#39;plantão&#39;, &#39;reunião de célula&#39;,&lt;br style=&quot;border-color: var(--border-color); padding: 0px; margin: 0px; text-align: left;&quot;&gt;&lt;span style=&quot;text-align: left;&quot;&gt;&#39;reunião geral&#39;,&#39;reunião de projetos&#39;, &lt;br&gt;&#39;shark-in ou shark-out&#39;, &#39;treinamento&#39;&lt;br&gt;&lt;/span&gt;" style="html=1;dropTarget=0;" parent="WIyWlLk6GJQsqaUBKTNV-1" vertex="1">
          <mxGeometry x="1260" y="394" width="200" height="130" as="geometry" />
        </mxCell>
        <mxCell id="tHn-pjXhagg5LejLjShR-87" value="" style="shape=module;jettyWidth=8;jettyHeight=4;" parent="tHn-pjXhagg5LejLjShR-86" vertex="1">
          <mxGeometry x="1" width="20" height="20" relative="1" as="geometry">
            <mxPoint x="-27" y="7" as="offset" />
          </mxGeometry>
        </mxCell>
        <mxCell id="gxHYrnx_h41nNu9AlrPa-10" style="edgeStyle=orthogonalEdgeStyle;rounded=0;orthogonalLoop=1;jettySize=auto;html=1;entryX=0.107;entryY=0.991;entryDx=0;entryDy=0;endArrow=ERoneToMany;endFill=0;startArrow=ERzeroToMany;startFill=0;entryPerimeter=0;" parent="WIyWlLk6GJQsqaUBKTNV-1" source="HKnBI8yPx4CETMh80sso-0" target="zkfFHV4jXpPFQw0GAbJ--4" edge="1">
          <mxGeometry relative="1" as="geometry" />
        </mxCell>
        <mxCell id="HKnBI8yPx4CETMh80sso-0" value="Log_users" style="swimlane;fontStyle=1;align=center;verticalAlign=top;childLayout=stackLayout;horizontal=1;startSize=26;horizontalStack=0;resizeParent=1;resizeLast=0;collapsible=1;marginBottom=0;rounded=0;shadow=0;strokeWidth=1;" parent="WIyWlLk6GJQsqaUBKTNV-1" vertex="1">
          <mxGeometry x="-30" y="700" width="290" height="190" as="geometry">
            <mxRectangle x="230" y="140" width="160" height="26" as="alternateBounds" />
          </mxGeometry>
        </mxCell>
        <mxCell id="HKnBI8yPx4CETMh80sso-1" value="id: SERIAL" style="text;align=left;verticalAlign=top;spacingLeft=4;spacingRight=4;overflow=hidden;rotatable=0;points=[[0,0.5],[1,0.5]];portConstraint=eastwest;fillColor=#fff2cc;strokeColor=#d6b656;" parent="HKnBI8yPx4CETMh80sso-0" vertex="1">
          <mxGeometry y="26" width="290" height="26" as="geometry" />
        </mxCell>
        <mxCell id="QpD29KoyjwfYBCXak_hD-12" value="action_log: ENUM(&#39;insert&#39;,&#39;update&#39;, &#39;delete&#39;)" style="text;align=left;verticalAlign=top;spacingLeft=4;spacingRight=4;overflow=hidden;rotatable=0;points=[[0,0.5],[1,0.5]];portConstraint=eastwest;rounded=0;shadow=0;html=0;" parent="HKnBI8yPx4CETMh80sso-0" vertex="1">
          <mxGeometry y="52" width="290" height="26" as="geometry" />
        </mxCell>
        <mxCell id="6dld7OIL8rlPsgUcQUCK-1" value="user_id: uuid" style="text;align=left;verticalAlign=top;spacingLeft=4;spacingRight=4;overflow=hidden;rotatable=0;points=[[0,0.5],[1,0.5]];portConstraint=eastwest;fillColor=#FFFFFF;strokeColor=#b85450;" parent="HKnBI8yPx4CETMh80sso-0" vertex="1">
          <mxGeometry y="78" width="290" height="26" as="geometry" />
        </mxCell>
        <mxCell id="gxHYrnx_h41nNu9AlrPa-9" value="removed_data: JSONB" style="text;align=left;verticalAlign=top;spacingLeft=4;spacingRight=4;overflow=hidden;rotatable=0;points=[[0,0.5],[1,0.5]];portConstraint=eastwest;fillColor=#FFFFFF;strokeColor=#b85450;" parent="HKnBI8yPx4CETMh80sso-0" vertex="1">
          <mxGeometry y="104" width="290" height="26" as="geometry" />
        </mxCell>
        <mxCell id="0MhYS269bVKAtgKYdjwF-0" value="user_editor_id: SMALLINT, FK user(id)" style="text;align=left;verticalAlign=top;spacingLeft=4;spacingRight=4;overflow=hidden;rotatable=0;points=[[0,0.5],[1,0.5]];portConstraint=eastwest;fillColor=#f8cecc;strokeColor=#b85450;" parent="HKnBI8yPx4CETMh80sso-0" vertex="1">
          <mxGeometry y="130" width="290" height="26" as="geometry" />
        </mxCell>
        <mxCell id="HKnBI8yPx4CETMh80sso-11" value="created_at: TIMESTAMP, DEFAULT NOW()" style="text;align=left;verticalAlign=top;spacingLeft=4;spacingRight=4;overflow=hidden;rotatable=0;points=[[0,0.5],[1,0.5]];portConstraint=eastwest;rounded=0;shadow=0;html=0;" parent="HKnBI8yPx4CETMh80sso-0" vertex="1">
          <mxGeometry y="156" width="290" height="26" as="geometry" />
        </mxCell>
        <mxCell id="HKnBI8yPx4CETMh80sso-12" value="" style="line;html=1;strokeWidth=1;align=left;verticalAlign=middle;spacingTop=-1;spacingLeft=3;spacingRight=3;rotatable=0;labelPosition=right;points=[];portConstraint=eastwest;" parent="HKnBI8yPx4CETMh80sso-0" vertex="1">
          <mxGeometry y="182" width="290" height="8" as="geometry" />
        </mxCell>
        <mxCell id="0MhYS269bVKAtgKYdjwF-19" style="edgeStyle=orthogonalEdgeStyle;rounded=0;orthogonalLoop=1;jettySize=auto;html=1;entryX=1.005;entryY=-0.149;entryDx=0;entryDy=0;entryPerimeter=0;endArrow=ERoneToMany;endFill=0;startArrow=ERzeroToMany;startFill=0;" parent="WIyWlLk6GJQsqaUBKTNV-1" source="0MhYS269bVKAtgKYdjwF-1" edge="1">
          <mxGeometry relative="1" as="geometry">
            <Array as="points">
              <mxPoint x="590" y="620" />
              <mxPoint x="390" y="620" />
              <mxPoint x="390" y="330" />
              <mxPoint x="370" y="330" />
              <mxPoint x="370" y="328" />
            </Array>
            <mxPoint x="351.2999999999997" y="328.1260000000002" as="targetPoint" />
          </mxGeometry>
        </mxCell>
        <mxCell id="kCAULkptvaa0RNnHd1r2-25" style="edgeStyle=orthogonalEdgeStyle;rounded=0;orthogonalLoop=1;jettySize=auto;html=1;endArrow=ERzeroToMany;endFill=0;startArrow=ERzeroToMany;startFill=0;entryX=0.697;entryY=1.015;entryDx=0;entryDy=0;entryPerimeter=0;" parent="WIyWlLk6GJQsqaUBKTNV-1" source="0MhYS269bVKAtgKYdjwF-1" target="fBdpWE9XJ8fsoQBZoCfp-5" edge="1">
          <mxGeometry relative="1" as="geometry">
            <mxPoint x="690" y="550" as="targetPoint" />
          </mxGeometry>
        </mxCell>
        <mxCell id="0MhYS269bVKAtgKYdjwF-1" value="Log_occurrences" style="swimlane;fontStyle=1;align=center;verticalAlign=top;childLayout=stackLayout;horizontal=1;startSize=26;horizontalStack=0;resizeParent=1;resizeLast=0;collapsible=1;marginBottom=0;rounded=0;shadow=0;strokeWidth=1;" parent="WIyWlLk6GJQsqaUBKTNV-1" vertex="1">
          <mxGeometry x="550" y="700" width="260" height="190" as="geometry">
            <mxRectangle x="230" y="140" width="160" height="26" as="alternateBounds" />
          </mxGeometry>
        </mxCell>
        <mxCell id="0MhYS269bVKAtgKYdjwF-2" value="id: SERIAL" style="text;align=left;verticalAlign=top;spacingLeft=4;spacingRight=4;overflow=hidden;rotatable=0;points=[[0,0.5],[1,0.5]];portConstraint=eastwest;fillColor=#fff2cc;strokeColor=#d6b656;" parent="0MhYS269bVKAtgKYdjwF-1" vertex="1">
          <mxGeometry y="26" width="260" height="26" as="geometry" />
        </mxCell>
        <mxCell id="QpD29KoyjwfYBCXak_hD-13" value="action_log: ENUM(&#39;insert&#39;,&#39;update&#39;, &#39;delete&#39;)" style="text;align=left;verticalAlign=top;spacingLeft=4;spacingRight=4;overflow=hidden;rotatable=0;points=[[0,0.5],[1,0.5]];portConstraint=eastwest;rounded=0;shadow=0;html=0;" parent="0MhYS269bVKAtgKYdjwF-1" vertex="1">
          <mxGeometry y="52" width="260" height="26" as="geometry" />
        </mxCell>
        <mxCell id="0MhYS269bVKAtgKYdjwF-4" value="id_occurrence: uuid" style="text;align=left;verticalAlign=top;spacingLeft=4;spacingRight=4;overflow=hidden;rotatable=0;points=[[0,0.5],[1,0.5]];portConstraint=eastwest;" parent="0MhYS269bVKAtgKYdjwF-1" vertex="1">
          <mxGeometry y="78" width="260" height="26" as="geometry" />
        </mxCell>
        <mxCell id="0MhYS269bVKAtgKYdjwF-5" value="id_user_editor: SMALLINT, FK users(id)" style="text;align=left;verticalAlign=top;spacingLeft=4;spacingRight=4;overflow=hidden;rotatable=0;points=[[0,0.5],[1,0.5]];portConstraint=eastwest;fillColor=#f8cecc;strokeColor=#b85450;" parent="0MhYS269bVKAtgKYdjwF-1" vertex="1">
          <mxGeometry y="104" width="260" height="26" as="geometry" />
        </mxCell>
        <mxCell id="6dld7OIL8rlPsgUcQUCK-10" value="removed_data: JSONB" style="text;align=left;verticalAlign=top;spacingLeft=4;spacingRight=4;overflow=hidden;rotatable=0;points=[[0,0.5],[1,0.5]];portConstraint=eastwest;" parent="0MhYS269bVKAtgKYdjwF-1" vertex="1">
          <mxGeometry y="130" width="260" height="26" as="geometry" />
        </mxCell>
        <mxCell id="0MhYS269bVKAtgKYdjwF-6" value="created_at: TIMESTAMP, DEFAULT NOW()" style="text;align=left;verticalAlign=top;spacingLeft=4;spacingRight=4;overflow=hidden;rotatable=0;points=[[0,0.5],[1,0.5]];portConstraint=eastwest;rounded=0;shadow=0;html=0;" parent="0MhYS269bVKAtgKYdjwF-1" vertex="1">
          <mxGeometry y="156" width="260" height="26" as="geometry" />
        </mxCell>
        <mxCell id="0MhYS269bVKAtgKYdjwF-7" value="" style="line;html=1;strokeWidth=1;align=left;verticalAlign=middle;spacingTop=-1;spacingLeft=3;spacingRight=3;rotatable=0;labelPosition=right;points=[];portConstraint=eastwest;" parent="0MhYS269bVKAtgKYdjwF-1" vertex="1">
          <mxGeometry y="182" width="260" height="8" as="geometry" />
        </mxCell>
        <mxCell id="kCAULkptvaa0RNnHd1r2-0" value="Cells" style="swimlane;fontStyle=1;align=center;verticalAlign=top;childLayout=stackLayout;horizontal=1;startSize=26;horizontalStack=0;resizeParent=1;resizeParentMax=0;resizeLast=0;collapsible=1;marginBottom=0;" parent="WIyWlLk6GJQsqaUBKTNV-1" vertex="1">
          <mxGeometry x="-400" y="20" width="260" height="86" as="geometry" />
        </mxCell>
        <mxCell id="kCAULkptvaa0RNnHd1r2-1" value="id: SERIAL" style="text;align=left;verticalAlign=top;spacingLeft=4;spacingRight=4;overflow=hidden;rotatable=0;points=[[0,0.5],[1,0.5]];portConstraint=eastwest;fillColor=#fff2cc;strokeColor=#d6b656;" parent="kCAULkptvaa0RNnHd1r2-0" vertex="1">
          <mxGeometry y="26" width="260" height="26" as="geometry" />
        </mxCell>
        <mxCell id="kCAULkptvaa0RNnHd1r2-2" value="name: VARCHAR(300)" style="text;align=left;verticalAlign=top;spacingLeft=4;spacingRight=4;overflow=hidden;rotatable=0;points=[[0,0.5],[1,0.5]];portConstraint=eastwest;rounded=0;shadow=0;html=0;" parent="kCAULkptvaa0RNnHd1r2-0" vertex="1">
          <mxGeometry y="52" width="260" height="26" as="geometry" />
        </mxCell>
        <mxCell id="kCAULkptvaa0RNnHd1r2-9" value="" style="line;strokeWidth=1;fillColor=none;align=left;verticalAlign=middle;spacingTop=-1;spacingLeft=3;spacingRight=3;rotatable=0;labelPosition=right;points=[];portConstraint=eastwest;strokeColor=inherit;" parent="kCAULkptvaa0RNnHd1r2-0" vertex="1">
          <mxGeometry y="78" width="260" height="8" as="geometry" />
        </mxCell>
        <mxCell id="kCAULkptvaa0RNnHd1r2-10" style="edgeStyle=orthogonalEdgeStyle;rounded=0;orthogonalLoop=1;jettySize=auto;html=1;entryX=0;entryY=0.5;entryDx=0;entryDy=0;endArrow=ERmany;endFill=0;startArrow=ERone;startFill=0;" parent="WIyWlLk6GJQsqaUBKTNV-1" source="kCAULkptvaa0RNnHd1r2-2" target="zkfFHV4jXpPFQw0GAbJ--1" edge="1">
          <mxGeometry relative="1" as="geometry" />
        </mxCell>
        <mxCell id="kCAULkptvaa0RNnHd1r2-23" value="" style="group" parent="WIyWlLk6GJQsqaUBKTNV-1" vertex="1" connectable="0">
          <mxGeometry x="-593" y="-425" width="360" height="160" as="geometry" />
        </mxCell>
        <mxCell id="kCAULkptvaa0RNnHd1r2-21" value="" style="shape=note;whiteSpace=wrap;html=1;backgroundOutline=1;darkOpacity=0.05;" parent="kCAULkptvaa0RNnHd1r2-23" vertex="1">
          <mxGeometry width="360" height="160" as="geometry" />
        </mxCell>
        <mxCell id="kCAULkptvaa0RNnHd1r2-22" value="" style="group" parent="kCAULkptvaa0RNnHd1r2-23" vertex="1" connectable="0">
          <mxGeometry x="65" y="46.25" width="210" height="67.5" as="geometry" />
        </mxCell>
        <mxCell id="kCAULkptvaa0RNnHd1r2-12" value="" style="rounded=0;whiteSpace=wrap;html=1;fillColor=#f8cecc;strokeColor=#b85450;" parent="kCAULkptvaa0RNnHd1r2-22" vertex="1">
          <mxGeometry y="45" width="50" height="20" as="geometry" />
        </mxCell>
        <mxCell id="kCAULkptvaa0RNnHd1r2-13" value="" style="rounded=0;whiteSpace=wrap;html=1;fillColor=#fff2cc;strokeColor=#d6b656;" parent="kCAULkptvaa0RNnHd1r2-22" vertex="1">
          <mxGeometry y="5" width="50" height="20" as="geometry" />
        </mxCell>
        <mxCell id="kCAULkptvaa0RNnHd1r2-14" value="Chave Primária" style="text;html=1;strokeColor=none;fillColor=none;align=center;verticalAlign=middle;whiteSpace=wrap;rounded=0;" parent="kCAULkptvaa0RNnHd1r2-22" vertex="1">
          <mxGeometry x="100" width="100" height="25" as="geometry" />
        </mxCell>
        <mxCell id="kCAULkptvaa0RNnHd1r2-15" value="Chave Estrangeira" style="text;html=1;strokeColor=none;fillColor=none;align=center;verticalAlign=middle;whiteSpace=wrap;rounded=0;" parent="kCAULkptvaa0RNnHd1r2-22" vertex="1">
          <mxGeometry x="100" y="42.5" width="110" height="25" as="geometry" />
        </mxCell>
        <mxCell id="kCAULkptvaa0RNnHd1r2-16" value="" style="endArrow=classic;html=1;rounded=0;exitX=1;exitY=0.5;exitDx=0;exitDy=0;entryX=0;entryY=0.5;entryDx=0;entryDy=0;" parent="kCAULkptvaa0RNnHd1r2-22" source="kCAULkptvaa0RNnHd1r2-12" target="kCAULkptvaa0RNnHd1r2-15" edge="1">
          <mxGeometry width="50" height="50" relative="1" as="geometry">
            <mxPoint x="50" y="95" as="sourcePoint" />
            <mxPoint x="100" y="45" as="targetPoint" />
            <Array as="points">
              <mxPoint x="70" y="55" />
            </Array>
          </mxGeometry>
        </mxCell>
        <mxCell id="kCAULkptvaa0RNnHd1r2-19" value="" style="endArrow=classic;html=1;rounded=0;exitX=1;exitY=0.5;exitDx=0;exitDy=0;" parent="kCAULkptvaa0RNnHd1r2-22" source="kCAULkptvaa0RNnHd1r2-13" edge="1">
          <mxGeometry width="50" height="50" relative="1" as="geometry">
            <mxPoint x="90" y="155" as="sourcePoint" />
            <mxPoint x="100" y="15" as="targetPoint" />
          </mxGeometry>
        </mxCell>
        <mxCell id="bBI314PdqXXNKxMfU6kw-13" style="edgeStyle=orthogonalEdgeStyle;rounded=0;orthogonalLoop=1;jettySize=auto;html=1;entryX=0.635;entryY=0;entryDx=0;entryDy=0;startArrow=ERzeroToOne;startFill=0;endArrow=ERzeroToMany;endFill=0;entryPerimeter=0;" parent="WIyWlLk6GJQsqaUBKTNV-1" edge="1">
          <mxGeometry relative="1" as="geometry">
            <Array as="points">
              <mxPoint x="665" y="27" />
              <mxPoint x="667" y="27" />
            </Array>
            <mxPoint x="665" y="-243" as="sourcePoint" />
            <mxPoint x="666.8499999999999" y="87" as="targetPoint" />
          </mxGeometry>
        </mxCell>
        <mxCell id="bBI314PdqXXNKxMfU6kw-8" value="Scoring_levels" style="swimlane;fontStyle=1;align=center;verticalAlign=top;childLayout=stackLayout;horizontal=1;startSize=26;horizontalStack=0;resizeParent=1;resizeParentMax=0;resizeLast=0;collapsible=1;marginBottom=0;" parent="WIyWlLk6GJQsqaUBKTNV-1" vertex="1">
          <mxGeometry x="630" y="-381" width="270" height="138" as="geometry" />
        </mxCell>
        <mxCell id="bBI314PdqXXNKxMfU6kw-9" value="id: SERIAL" style="text;align=left;verticalAlign=top;spacingLeft=4;spacingRight=4;overflow=hidden;rotatable=0;points=[[0,0.5],[1,0.5]];portConstraint=eastwest;fillColor=#fff2cc;strokeColor=#d6b656;" parent="bBI314PdqXXNKxMfU6kw-8" vertex="1">
          <mxGeometry y="26" width="270" height="26" as="geometry" />
        </mxCell>
        <mxCell id="QpD29KoyjwfYBCXak_hD-9" value="scoring_type: ENUM(&#39;gratificação&#39;,&#39;advertência&#39;)" style="text;align=left;verticalAlign=top;spacingLeft=4;spacingRight=4;overflow=hidden;rotatable=0;points=[[0,0.5],[1,0.5]];portConstraint=eastwest;rounded=0;shadow=0;html=0;" parent="bBI314PdqXXNKxMfU6kw-8" vertex="1">
          <mxGeometry y="52" width="270" height="26" as="geometry" />
        </mxCell>
        <mxCell id="bBI314PdqXXNKxMfU6kw-10" value="name: VARCHAR(100)" style="text;align=left;verticalAlign=top;spacingLeft=4;spacingRight=4;overflow=hidden;rotatable=0;points=[[0,0.5],[1,0.5]];portConstraint=eastwest;rounded=0;shadow=0;html=0;" parent="bBI314PdqXXNKxMfU6kw-8" vertex="1">
          <mxGeometry y="78" width="270" height="26" as="geometry" />
        </mxCell>
        <mxCell id="bBI314PdqXXNKxMfU6kw-11" value="value:  SMALLINT" style="text;align=left;verticalAlign=top;spacingLeft=4;spacingRight=4;overflow=hidden;rotatable=0;points=[[0,0.5],[1,0.5]];portConstraint=eastwest;rounded=0;shadow=0;html=0;" parent="bBI314PdqXXNKxMfU6kw-8" vertex="1">
          <mxGeometry y="104" width="270" height="26" as="geometry" />
        </mxCell>
        <mxCell id="bBI314PdqXXNKxMfU6kw-12" value="" style="line;strokeWidth=1;fillColor=none;align=left;verticalAlign=middle;spacingTop=-1;spacingLeft=3;spacingRight=3;rotatable=0;labelPosition=right;points=[];portConstraint=eastwest;strokeColor=inherit;" parent="bBI314PdqXXNKxMfU6kw-8" vertex="1">
          <mxGeometry y="130" width="270" height="8" as="geometry" />
        </mxCell>
        <mxCell id="9lwiX_E5CfIlx43PSh-V-9" style="edgeStyle=orthogonalEdgeStyle;rounded=0;orthogonalLoop=1;jettySize=auto;html=1;entryX=0.25;entryY=0;entryDx=0;entryDy=0;" parent="WIyWlLk6GJQsqaUBKTNV-1" source="bBI314PdqXXNKxMfU6kw-23" target="bBI314PdqXXNKxMfU6kw-8" edge="1">
          <mxGeometry relative="1" as="geometry" />
        </mxCell>
        <mxCell id="bBI314PdqXXNKxMfU6kw-23" value="(&#39;advertência&#39;, &#39;leve&#39;, 2)&lt;br&gt;(&#39;advertência&#39;, &#39;moderado&#39;, 4)&lt;br&gt;(&#39;advertência&#39;,&amp;nbsp;&#39;grave&#39;, 6)&lt;br&gt;(&#39;advertência&#39;,&amp;nbsp;&#39;gravíssima&#39;, 8)&lt;br&gt;(&#39;&#39;advertência&#39;,&amp;nbsp;gravíssima&#39;, 10)" style="html=1;dropTarget=0;" parent="WIyWlLk6GJQsqaUBKTNV-1" vertex="1">
          <mxGeometry x="600" y="-540" width="190" height="110" as="geometry" />
        </mxCell>
        <mxCell id="bBI314PdqXXNKxMfU6kw-24" value="" style="shape=module;jettyWidth=8;jettyHeight=4;" parent="bBI314PdqXXNKxMfU6kw-23" vertex="1">
          <mxGeometry x="1" width="20" height="20" relative="1" as="geometry">
            <mxPoint x="-27" y="7" as="offset" />
          </mxGeometry>
        </mxCell>
        <mxCell id="famHrx6TlAmhTrz2zlUo-6" style="edgeStyle=orthogonalEdgeStyle;rounded=0;orthogonalLoop=1;jettySize=auto;html=1;entryX=1;entryY=0.25;entryDx=0;entryDy=0;" parent="WIyWlLk6GJQsqaUBKTNV-1" source="famHrx6TlAmhTrz2zlUo-2" target="tHn-pjXhagg5LejLjShR-86" edge="1">
          <mxGeometry relative="1" as="geometry" />
        </mxCell>
        <mxCell id="famHrx6TlAmhTrz2zlUo-2" value="Não colocar o item &#39;Outros&#39; &lt;br&gt;para não atrapalhar &lt;br&gt;no cálculo da metragem" style="html=1;dropTarget=0;fillColor=#E8C3C3;strokeColor=#B34F4B;" parent="WIyWlLk6GJQsqaUBKTNV-1" vertex="1">
          <mxGeometry x="1530" y="376" width="150" height="92" as="geometry" />
        </mxCell>
        <mxCell id="famHrx6TlAmhTrz2zlUo-3" value="" style="shape=module;jettyWidth=8;jettyHeight=4;" parent="famHrx6TlAmhTrz2zlUo-2" vertex="1">
          <mxGeometry x="1" width="20" height="20" relative="1" as="geometry">
            <mxPoint x="-27" y="7" as="offset" />
          </mxGeometry>
        </mxCell>
        <mxCell id="famHrx6TlAmhTrz2zlUo-19" style="edgeStyle=orthogonalEdgeStyle;rounded=0;orthogonalLoop=1;jettySize=auto;html=1;entryX=0.5;entryY=0;entryDx=0;entryDy=0;endArrow=ERone;endFill=0;startArrow=ERone;startFill=0;" parent="WIyWlLk6GJQsqaUBKTNV-1" source="famHrx6TlAmhTrz2zlUo-9" target="zkfFHV4jXpPFQw0GAbJ--0" edge="1">
          <mxGeometry relative="1" as="geometry">
            <Array as="points">
              <mxPoint x="250" y="-136" />
              <mxPoint x="250" />
              <mxPoint x="220" />
            </Array>
          </mxGeometry>
        </mxCell>
        <mxCell id="famHrx6TlAmhTrz2zlUo-9" value="&lt;b&gt;Authentications&lt;/b&gt;" style="swimlane;fontStyle=0;childLayout=stackLayout;horizontal=1;startSize=26;fillColor=default;horizontalStack=0;resizeParent=1;resizeParentMax=0;resizeLast=0;collapsible=1;marginBottom=0;whiteSpace=wrap;html=1;" parent="WIyWlLk6GJQsqaUBKTNV-1" vertex="1">
          <mxGeometry x="270" y="-330" width="250" height="274" as="geometry" />
        </mxCell>
        <mxCell id="9lwiX_E5CfIlx43PSh-V-41" value="id: uuid" style="text;align=left;verticalAlign=top;spacingLeft=4;spacingRight=4;overflow=hidden;rotatable=0;points=[[0,0.5],[1,0.5]];portConstraint=eastwest;fillColor=#fff2cc;strokeColor=#d6b656;" parent="famHrx6TlAmhTrz2zlUo-9" vertex="1">
          <mxGeometry y="26" width="250" height="26" as="geometry" />
        </mxCell>
        <mxCell id="zkfFHV4jXpPFQw0GAbJ--2" value="email: VARCHAR(300)" style="text;align=left;verticalAlign=top;spacingLeft=4;spacingRight=4;overflow=hidden;rotatable=0;points=[[0,0.5],[1,0.5]];portConstraint=eastwest;rounded=0;shadow=0;html=0;" parent="famHrx6TlAmhTrz2zlUo-9" vertex="1">
          <mxGeometry y="52" width="250" height="26" as="geometry" />
        </mxCell>
        <mxCell id="-uKI1FrvdBVuVZxCTakQ-1" value="password: VARCHAR(64)" style="text;align=left;verticalAlign=top;spacingLeft=4;spacingRight=4;overflow=hidden;rotatable=0;points=[[0,0.5],[1,0.5]];portConstraint=eastwest;rounded=0;shadow=0;html=0;" parent="famHrx6TlAmhTrz2zlUo-9" vertex="1">
          <mxGeometry y="78" width="250" height="26" as="geometry" />
        </mxCell>
        <mxCell id="f0laFgSwW5wZBhOm5lYG-2" value="role: ENUM(&#39;user&#39;,&#39;admin&#39;,&#39;manager&#39;)" style="text;align=left;verticalAlign=top;spacingLeft=4;spacingRight=4;overflow=hidden;rotatable=0;points=[[0,0.5],[1,0.5]];portConstraint=eastwest;rounded=0;shadow=0;html=0;" parent="famHrx6TlAmhTrz2zlUo-9" vertex="1">
          <mxGeometry y="104" width="250" height="26" as="geometry" />
        </mxCell>
        <mxCell id="famHrx6TlAmhTrz2zlUo-14" value="user_id: INT, FK&amp;nbsp; users(id)" style="text;strokeColor=#b85450;fillColor=#f8cecc;align=left;verticalAlign=top;spacingLeft=4;spacingRight=4;overflow=hidden;rotatable=0;points=[[0,0.5],[1,0.5]];portConstraint=eastwest;whiteSpace=wrap;html=1;" parent="famHrx6TlAmhTrz2zlUo-9" vertex="1">
          <mxGeometry y="130" width="250" height="26" as="geometry" />
        </mxCell>
        <mxCell id="f0laFgSwW5wZBhOm5lYG-0" value="salt: VARCHAR(255)" style="text;align=left;verticalAlign=top;spacingLeft=4;spacingRight=4;overflow=hidden;rotatable=0;points=[[0,0.5],[1,0.5]];portConstraint=eastwest;rounded=0;shadow=0;html=0;" parent="famHrx6TlAmhTrz2zlUo-9" vertex="1">
          <mxGeometry y="156" width="250" height="26" as="geometry" />
        </mxCell>
        <mxCell id="6dld7OIL8rlPsgUcQUCK-0" value="created_at: DATETIME DEFAULT CURRENT_TIMESTAMP" style="text;strokeColor=none;fillColor=none;align=left;verticalAlign=top;spacingLeft=4;spacingRight=4;overflow=hidden;rotatable=0;points=[[0,0.5],[1,0.5]];portConstraint=eastwest;whiteSpace=wrap;html=1;" parent="famHrx6TlAmhTrz2zlUo-9" vertex="1">
          <mxGeometry y="182" width="250" height="46" as="geometry" />
        </mxCell>
        <mxCell id="famHrx6TlAmhTrz2zlUo-13" value="updated_at: DATETIME DEFAULT CURRENT_TIMESTAMP" style="text;strokeColor=none;fillColor=none;align=left;verticalAlign=top;spacingLeft=4;spacingRight=4;overflow=hidden;rotatable=0;points=[[0,0.5],[1,0.5]];portConstraint=eastwest;whiteSpace=wrap;html=1;" parent="famHrx6TlAmhTrz2zlUo-9" vertex="1">
          <mxGeometry y="228" width="250" height="46" as="geometry" />
        </mxCell>
        <mxCell id="6dld7OIL8rlPsgUcQUCK-13" style="edgeStyle=orthogonalEdgeStyle;rounded=0;orthogonalLoop=1;jettySize=auto;html=1;entryX=1;entryY=0.5;entryDx=0;entryDy=0;" parent="WIyWlLk6GJQsqaUBKTNV-1" source="6dld7OIL8rlPsgUcQUCK-2" target="gxHYrnx_h41nNu9AlrPa-9" edge="1">
          <mxGeometry relative="1" as="geometry" />
        </mxCell>
        <mxCell id="fBdpWE9XJ8fsoQBZoCfp-7" style="edgeStyle=orthogonalEdgeStyle;rounded=0;orthogonalLoop=1;jettySize=auto;html=1;entryX=0;entryY=0.5;entryDx=0;entryDy=0;" parent="WIyWlLk6GJQsqaUBKTNV-1" source="6dld7OIL8rlPsgUcQUCK-2" target="6dld7OIL8rlPsgUcQUCK-10" edge="1">
          <mxGeometry relative="1" as="geometry" />
        </mxCell>
        <mxCell id="6dld7OIL8rlPsgUcQUCK-2" value="Deve ser inserido&amp;nbsp; um&amp;nbsp;&lt;br&gt;JSON com os dados&lt;br&gt;quando for removido." style="html=1;dropTarget=0;fillColor=#E6E6E6;strokeColor=#82b366;" parent="WIyWlLk6GJQsqaUBKTNV-1" vertex="1">
          <mxGeometry x="310" y="774" width="134.91" height="86" as="geometry" />
        </mxCell>
        <mxCell id="6dld7OIL8rlPsgUcQUCK-3" value="" style="shape=module;jettyWidth=8;jettyHeight=4;" parent="6dld7OIL8rlPsgUcQUCK-2" vertex="1">
          <mxGeometry x="1" width="20" height="20" relative="1" as="geometry">
            <mxPoint x="-27" y="7" as="offset" />
          </mxGeometry>
        </mxCell>
        <mxCell id="9lwiX_E5CfIlx43PSh-V-10" style="edgeStyle=orthogonalEdgeStyle;rounded=0;orthogonalLoop=1;jettySize=auto;html=1;entryX=0.75;entryY=0;entryDx=0;entryDy=0;" parent="WIyWlLk6GJQsqaUBKTNV-1" source="9lwiX_E5CfIlx43PSh-V-2" target="bBI314PdqXXNKxMfU6kw-8" edge="1">
          <mxGeometry relative="1" as="geometry" />
        </mxCell>
        <mxCell id="9lwiX_E5CfIlx43PSh-V-2" value="&lt;div style=&quot;text-align: left;&quot;&gt;&lt;span style=&quot;background-color: initial;&quot;&gt;(&#39;gratificação&#39;&lt;/span&gt;&lt;span style=&quot;background-color: initial;&quot;&gt;, &#39;bom&#39;, 1)&lt;/span&gt;&lt;/div&gt;(&lt;span style=&quot;text-align: left;&quot;&gt;&#39;gratificação&#39;&lt;/span&gt;, &#39;ótimo&#39;, 2)&lt;br&gt;(&#39;&lt;span style=&quot;text-align: left;&quot;&gt;&#39;gratificação&#39;&lt;/span&gt;, excelente&#39;, 3)" style="html=1;dropTarget=0;" parent="WIyWlLk6GJQsqaUBKTNV-1" vertex="1">
          <mxGeometry x="810" y="-520" width="160" height="80" as="geometry" />
        </mxCell>
        <mxCell id="9lwiX_E5CfIlx43PSh-V-3" value="" style="shape=module;jettyWidth=8;jettyHeight=4;" parent="9lwiX_E5CfIlx43PSh-V-2" vertex="1">
          <mxGeometry x="1" width="20" height="20" relative="1" as="geometry">
            <mxPoint x="-27" y="7" as="offset" />
          </mxGeometry>
        </mxCell>
        <mxCell id="QpD29KoyjwfYBCXak_hD-11" style="edgeStyle=orthogonalEdgeStyle;rounded=0;orthogonalLoop=1;jettySize=auto;html=1;entryX=1;entryY=0.25;entryDx=0;entryDy=0;" parent="WIyWlLk6GJQsqaUBKTNV-1" source="9lwiX_E5CfIlx43PSh-V-6" target="bBI314PdqXXNKxMfU6kw-8" edge="1">
          <mxGeometry relative="1" as="geometry" />
        </mxCell>
        <mxCell id="9lwiX_E5CfIlx43PSh-V-6" value="Não permitir que gratificação&lt;br&gt;receba valores negativos e&amp;nbsp;&lt;br&gt;advertência valores positivos." style="html=1;dropTarget=0;fillColor=#E8C3C3;strokeColor=#B34F4B;" parent="WIyWlLk6GJQsqaUBKTNV-1" vertex="1">
          <mxGeometry x="990" y="-410" width="190" height="110" as="geometry" />
        </mxCell>
        <mxCell id="9lwiX_E5CfIlx43PSh-V-7" value="" style="shape=module;jettyWidth=8;jettyHeight=4;" parent="9lwiX_E5CfIlx43PSh-V-6" vertex="1">
          <mxGeometry x="1" width="20" height="20" relative="1" as="geometry">
            <mxPoint x="-27" y="7" as="offset" />
          </mxGeometry>
        </mxCell>
        <mxCell id="bLYH9DIfeV2L1JEAK7II-24" style="edgeStyle=orthogonalEdgeStyle;rounded=0;orthogonalLoop=1;jettySize=auto;html=1;startArrow=ERzeroToMany;startFill=0;endArrow=ERoneToMany;endFill=0;" edge="1" parent="WIyWlLk6GJQsqaUBKTNV-1" source="9lwiX_E5CfIlx43PSh-V-12" target="bLYH9DIfeV2L1JEAK7II-23">
          <mxGeometry relative="1" as="geometry" />
        </mxCell>
        <mxCell id="bLYH9DIfeV2L1JEAK7II-33" style="edgeStyle=orthogonalEdgeStyle;rounded=0;orthogonalLoop=1;jettySize=auto;html=1;entryX=0.5;entryY=0;entryDx=0;entryDy=0;fillColor=#ffe6cc;strokeColor=#d79b00;strokeWidth=2;endArrow=ERoneToMany;endFill=0;startArrow=ERzeroToMany;startFill=0;" edge="1" parent="WIyWlLk6GJQsqaUBKTNV-1" source="9lwiX_E5CfIlx43PSh-V-12" target="bLYH9DIfeV2L1JEAK7II-26">
          <mxGeometry relative="1" as="geometry">
            <Array as="points">
              <mxPoint x="1350" y="-560" />
              <mxPoint y="-560" />
            </Array>
          </mxGeometry>
        </mxCell>
        <mxCell id="9lwiX_E5CfIlx43PSh-V-12" value="Files" style="swimlane;fontStyle=1;align=center;verticalAlign=top;childLayout=stackLayout;horizontal=1;startSize=26;horizontalStack=0;resizeParent=1;resizeParentMax=0;resizeLast=0;collapsible=1;marginBottom=0;" parent="WIyWlLk6GJQsqaUBKTNV-1" vertex="1">
          <mxGeometry x="1220" y="-243" width="260" height="288" as="geometry" />
        </mxCell>
        <mxCell id="9lwiX_E5CfIlx43PSh-V-13" value="id: SERIAL" style="text;align=left;verticalAlign=top;spacingLeft=4;spacingRight=4;overflow=hidden;rotatable=0;points=[[0,0.5],[1,0.5]];portConstraint=eastwest;fillColor=#fff2cc;strokeColor=#d6b656;" parent="9lwiX_E5CfIlx43PSh-V-12" vertex="1">
          <mxGeometry y="26" width="260" height="26" as="geometry" />
        </mxCell>
        <mxCell id="z99QqhigmK5jqkPfP7uZ-0" value="url: VARCHAR(1500)" style="text;align=left;verticalAlign=top;spacingLeft=4;spacingRight=4;overflow=hidden;rotatable=0;points=[[0,0.5],[1,0.5]];portConstraint=eastwest;rounded=0;shadow=0;html=0;" parent="9lwiX_E5CfIlx43PSh-V-12" vertex="1">
          <mxGeometry y="52" width="260" height="26" as="geometry" />
        </mxCell>
        <mxCell id="9lwiX_E5CfIlx43PSh-V-15" value="public_id: VARCHAR(1000)" style="text;align=left;verticalAlign=top;spacingLeft=4;spacingRight=4;overflow=hidden;rotatable=0;points=[[0,0.5],[1,0.5]];portConstraint=eastwest;rounded=0;shadow=0;html=0;" parent="9lwiX_E5CfIlx43PSh-V-12" vertex="1">
          <mxGeometry y="78" width="260" height="26" as="geometry" />
        </mxCell>
        <mxCell id="9lwiX_E5CfIlx43PSh-V-19" value="file_name: VARCHAR(255)" style="text;align=left;verticalAlign=top;spacingLeft=4;spacingRight=4;overflow=hidden;rotatable=0;points=[[0,0.5],[1,0.5]];portConstraint=eastwest;rounded=0;shadow=0;html=0;" parent="9lwiX_E5CfIlx43PSh-V-12" vertex="1">
          <mxGeometry y="104" width="260" height="26" as="geometry" />
        </mxCell>
        <mxCell id="9lwiX_E5CfIlx43PSh-V-20" value="file_type: VARCHAR(60)" style="text;align=left;verticalAlign=top;spacingLeft=4;spacingRight=4;overflow=hidden;rotatable=0;points=[[0,0.5],[1,0.5]];portConstraint=eastwest;rounded=0;shadow=0;html=0;" parent="9lwiX_E5CfIlx43PSh-V-12" vertex="1">
          <mxGeometry y="130" width="260" height="26" as="geometry" />
        </mxCell>
        <mxCell id="QpD29KoyjwfYBCXak_hD-3" value="file_size: BIGINT" style="text;align=left;verticalAlign=top;spacingLeft=4;spacingRight=4;overflow=hidden;rotatable=0;points=[[0,0.5],[1,0.5]];portConstraint=eastwest;rounded=0;shadow=0;html=0;" parent="9lwiX_E5CfIlx43PSh-V-12" vertex="1">
          <mxGeometry y="156" width="260" height="26" as="geometry" />
        </mxCell>
        <mxCell id="z99QqhigmK5jqkPfP7uZ-3" value="url: VARCHAR(1500)" style="text;align=left;verticalAlign=top;spacingLeft=4;spacingRight=4;overflow=hidden;rotatable=0;points=[[0,0.5],[1,0.5]];portConstraint=eastwest;rounded=0;shadow=0;html=0;" parent="9lwiX_E5CfIlx43PSh-V-12" vertex="1">
          <mxGeometry y="182" width="260" height="26" as="geometry" />
        </mxCell>
        <mxCell id="9lwiX_E5CfIlx43PSh-V-23" value="created_at: TIMESTAMP, DEFAULT NOW()" style="text;align=left;verticalAlign=top;spacingLeft=4;spacingRight=4;overflow=hidden;rotatable=0;points=[[0,0.5],[1,0.5]];portConstraint=eastwest;rounded=0;shadow=0;html=0;" parent="9lwiX_E5CfIlx43PSh-V-12" vertex="1">
          <mxGeometry y="208" width="260" height="26" as="geometry" />
        </mxCell>
        <mxCell id="bLYH9DIfeV2L1JEAK7II-25" value="updated_at: DATETIME DEFAULT CURRENT_TIMESTAMP" style="text;strokeColor=none;fillColor=none;align=left;verticalAlign=top;spacingLeft=4;spacingRight=4;overflow=hidden;rotatable=0;points=[[0,0.5],[1,0.5]];portConstraint=eastwest;whiteSpace=wrap;html=1;" vertex="1" parent="9lwiX_E5CfIlx43PSh-V-12">
          <mxGeometry y="234" width="260" height="46" as="geometry" />
        </mxCell>
        <mxCell id="9lwiX_E5CfIlx43PSh-V-17" value="" style="line;strokeWidth=1;fillColor=none;align=left;verticalAlign=middle;spacingTop=-1;spacingLeft=3;spacingRight=3;rotatable=0;labelPosition=right;points=[];portConstraint=eastwest;strokeColor=inherit;" parent="9lwiX_E5CfIlx43PSh-V-12" vertex="1">
          <mxGeometry y="280" width="260" height="8" as="geometry" />
        </mxCell>
        <mxCell id="9lwiX_E5CfIlx43PSh-V-24" style="edgeStyle=orthogonalEdgeStyle;rounded=0;orthogonalLoop=1;jettySize=auto;html=1;entryX=0.75;entryY=0;entryDx=0;entryDy=0;endArrow=ERoneToMany;endFill=0;startArrow=ERzeroToMany;startFill=0;exitX=0;exitY=0.5;exitDx=0;exitDy=0;" parent="WIyWlLk6GJQsqaUBKTNV-1" source="bLYH9DIfeV2L1JEAK7II-19" target="-uKI1FrvdBVuVZxCTakQ-6" edge="1">
          <mxGeometry relative="1" as="geometry" />
        </mxCell>
        <mxCell id="9lwiX_E5CfIlx43PSh-V-37" style="edgeStyle=orthogonalEdgeStyle;rounded=0;orthogonalLoop=1;jettySize=auto;html=1;startArrow=block;startFill=1;endArrow=none;endFill=0;" parent="WIyWlLk6GJQsqaUBKTNV-1" source="9lwiX_E5CfIlx43PSh-V-25" edge="1">
          <mxGeometry relative="1" as="geometry">
            <mxPoint x="1800.0000000000005" y="351" as="targetPoint" />
            <Array as="points">
              <mxPoint x="1950" y="350" />
            </Array>
          </mxGeometry>
        </mxCell>
        <mxCell id="9lwiX_E5CfIlx43PSh-V-25" value="&lt;b&gt;Log_errors&lt;/b&gt;" style="swimlane;fontStyle=0;childLayout=stackLayout;horizontal=1;startSize=26;fillColor=none;horizontalStack=0;resizeParent=1;resizeParentMax=0;resizeLast=0;collapsible=1;marginBottom=0;whiteSpace=wrap;html=1;" parent="WIyWlLk6GJQsqaUBKTNV-1" vertex="1">
          <mxGeometry x="2100" y="290" width="250" height="106" as="geometry" />
        </mxCell>
        <mxCell id="9lwiX_E5CfIlx43PSh-V-40" value="id: SERIAL" style="text;align=left;verticalAlign=top;spacingLeft=4;spacingRight=4;overflow=hidden;rotatable=0;points=[[0,0.5],[1,0.5]];portConstraint=eastwest;fillColor=#fff2cc;strokeColor=#d6b656;" parent="9lwiX_E5CfIlx43PSh-V-25" vertex="1">
          <mxGeometry y="26" width="250" height="26" as="geometry" />
        </mxCell>
        <mxCell id="9lwiX_E5CfIlx43PSh-V-30" value="stack: VARCHAR" style="text;strokeColor=none;fillColor=none;align=left;verticalAlign=top;spacingLeft=4;spacingRight=4;overflow=hidden;rotatable=0;points=[[0,0.5],[1,0.5]];portConstraint=eastwest;whiteSpace=wrap;html=1;" parent="9lwiX_E5CfIlx43PSh-V-25" vertex="1">
          <mxGeometry y="52" width="250" height="28" as="geometry" />
        </mxCell>
        <mxCell id="9lwiX_E5CfIlx43PSh-V-39" value="created_at: TIMESTAMP, DEFAULT NOW()" style="text;align=left;verticalAlign=top;spacingLeft=4;spacingRight=4;overflow=hidden;rotatable=0;points=[[0,0.5],[1,0.5]];portConstraint=eastwest;rounded=0;shadow=0;html=0;" parent="9lwiX_E5CfIlx43PSh-V-25" vertex="1">
          <mxGeometry y="80" width="250" height="26" as="geometry" />
        </mxCell>
        <mxCell id="bLYH9DIfeV2L1JEAK7II-11" value="Occurrence_Upload_files" style="swimlane;fontStyle=1;align=center;verticalAlign=top;childLayout=stackLayout;horizontal=1;startSize=26;horizontalStack=0;resizeParent=1;resizeParentMax=0;resizeLast=0;collapsible=1;marginBottom=0;" vertex="1" parent="WIyWlLk6GJQsqaUBKTNV-1">
          <mxGeometry x="760" y="-92" width="260" height="112" as="geometry" />
        </mxCell>
        <mxCell id="bLYH9DIfeV2L1JEAK7II-12" value="id: SERIAL" style="text;align=left;verticalAlign=top;spacingLeft=4;spacingRight=4;overflow=hidden;rotatable=0;points=[[0,0.5],[1,0.5]];portConstraint=eastwest;fillColor=#fff2cc;strokeColor=#d6b656;" vertex="1" parent="bLYH9DIfeV2L1JEAK7II-11">
          <mxGeometry y="26" width="260" height="26" as="geometry" />
        </mxCell>
        <mxCell id="bLYH9DIfeV2L1JEAK7II-19" value="occurrence_id: SMALLINT, FK occurrence(id)" style="text;align=left;verticalAlign=top;spacingLeft=4;spacingRight=4;overflow=hidden;rotatable=0;points=[[0,0.5],[1,0.5]];portConstraint=eastwest;fillColor=#f8cecc;strokeColor=#b85450;" vertex="1" parent="bLYH9DIfeV2L1JEAK7II-11">
          <mxGeometry y="52" width="260" height="26" as="geometry" />
        </mxCell>
        <mxCell id="bLYH9DIfeV2L1JEAK7II-23" value="file_id: SMALLINT, FK file(id)" style="text;align=left;verticalAlign=top;spacingLeft=4;spacingRight=4;overflow=hidden;rotatable=0;points=[[0,0.5],[1,0.5]];portConstraint=eastwest;fillColor=#f8cecc;strokeColor=#b85450;" vertex="1" parent="bLYH9DIfeV2L1JEAK7II-11">
          <mxGeometry y="78" width="260" height="26" as="geometry" />
        </mxCell>
        <mxCell id="bLYH9DIfeV2L1JEAK7II-21" value="" style="line;strokeWidth=1;fillColor=none;align=left;verticalAlign=middle;spacingTop=-1;spacingLeft=3;spacingRight=3;rotatable=0;labelPosition=right;points=[];portConstraint=eastwest;strokeColor=inherit;" vertex="1" parent="bLYH9DIfeV2L1JEAK7II-11">
          <mxGeometry y="104" width="260" height="8" as="geometry" />
        </mxCell>
        <mxCell id="bLYH9DIfeV2L1JEAK7II-26" value="User_Upload_files" style="swimlane;fontStyle=1;align=center;verticalAlign=top;childLayout=stackLayout;horizontal=1;startSize=26;horizontalStack=0;resizeParent=1;resizeParentMax=0;resizeLast=0;collapsible=1;marginBottom=0;" vertex="1" parent="WIyWlLk6GJQsqaUBKTNV-1">
          <mxGeometry x="-130" y="-262" width="260" height="112" as="geometry" />
        </mxCell>
        <mxCell id="bLYH9DIfeV2L1JEAK7II-27" value="id: SERIAL" style="text;align=left;verticalAlign=top;spacingLeft=4;spacingRight=4;overflow=hidden;rotatable=0;points=[[0,0.5],[1,0.5]];portConstraint=eastwest;fillColor=#fff2cc;strokeColor=#d6b656;" vertex="1" parent="bLYH9DIfeV2L1JEAK7II-26">
          <mxGeometry y="26" width="260" height="26" as="geometry" />
        </mxCell>
        <mxCell id="bLYH9DIfeV2L1JEAK7II-28" value="user_id: SMALLINT, FK user(id)" style="text;align=left;verticalAlign=top;spacingLeft=4;spacingRight=4;overflow=hidden;rotatable=0;points=[[0,0.5],[1,0.5]];portConstraint=eastwest;fillColor=#f8cecc;strokeColor=#b85450;" vertex="1" parent="bLYH9DIfeV2L1JEAK7II-26">
          <mxGeometry y="52" width="260" height="26" as="geometry" />
        </mxCell>
        <mxCell id="bLYH9DIfeV2L1JEAK7II-29" value="file_id: SMALLINT, FK file(id)" style="text;align=left;verticalAlign=top;spacingLeft=4;spacingRight=4;overflow=hidden;rotatable=0;points=[[0,0.5],[1,0.5]];portConstraint=eastwest;fillColor=#f8cecc;strokeColor=#b85450;" vertex="1" parent="bLYH9DIfeV2L1JEAK7II-26">
          <mxGeometry y="78" width="260" height="26" as="geometry" />
        </mxCell>
        <mxCell id="bLYH9DIfeV2L1JEAK7II-31" value="" style="line;strokeWidth=1;fillColor=none;align=left;verticalAlign=middle;spacingTop=-1;spacingLeft=3;spacingRight=3;rotatable=0;labelPosition=right;points=[];portConstraint=eastwest;strokeColor=inherit;" vertex="1" parent="bLYH9DIfeV2L1JEAK7II-26">
          <mxGeometry y="104" width="260" height="8" as="geometry" />
        </mxCell>
      </root>
    </mxGraphModel>
  </diagram>
</mxfile>
